{"title":"Written.In.Blood.DIVX.2002.La.Vela.avi","uid":4996956,"size":1204616289,"categoryP":"video","categoryS":"movies","magnet":"?xt=urn:btih:9177e19614142171f9bc1c15a4177fe0fb8f0c1a&amp;dn=Written.In.Blood.DIVX.2002.La.Vela.avi&amp;tr=udp%3A%2F%2Ftracker.openbittorrent.com%3A80&amp;tr=udp%3A%2F%2Fopen.demonii.com%3A1337&amp;tr=udp%3A%2F%2Ftracker.coppersurfer.tk%3A6969&amp;tr=udp%3A%2F%2Fexodus.desync.com%3A6969","seeders":0,"leechers":1,"uploader":"headdock","files":4,"time":1247331762,"description":"Plot:\n\n\nWhen the wife of Detective John Traveller and her lover are executed in bed and John takes the blame, his partner and friend, Detective Matthew Ransom, becomes very upset, affecting his marriage that was not working well. The lover of John's wife was the son of Luke Williams, a detective of the same department, and he does not accept the death of his son. After the trial and conviction of John, Matthew separates from his wife Mary Ramson, being sexually arrested by John's daughter Jude. Meanwhile, a serial killer kills the enemies of John, leaving clues in the crime scenes relatives to Sherlock Holmes tales and Matthew suspects of Jude.\n\n\n\nGeneral\n\n\nComplete name                    : Written.In.Blood.DIVX.2002.La.Vela.avi\nImdb                             : http://www.imdb.com/title/tt0316904/\nLanguage                         : English\nSubtitles                        : N/A\nFormat                           : AVI\nFormat/Info                      : Audio Video Interleave\nFormat profile                   : OpenDML\nFile size                        : 1.12 GiB\nDuration                         : 4h 1mn\nOverall bit rate                 : 665 Kbps\nWriting application              : Lavf51.12.1\n\nVideo\nFormat                           : MPEG-4 Visual\nFormat profile                   : Simple@L1\nFormat settings, BVOP            : No\nFormat settings, QPel            : No\nFormat settings, GMC             : No warppoints\nFormat settings, Matrix          : Default\nCodec ID                         : DX50\nCodec ID/Hint                    : DivX 5\nDuration                         : 4h 1mn\nBit rate                         : 562 Kbps\nWidth                            : 720 pixels\nHeight                           : 576 pixels\nDisplay aspect ratio             : 5/4\nFrame rate                       : 25.000 fps\nStandard                         : PAL\nResolution                       : 24 bits\nColorimetry                      : 4:2:0\nScan type                        : Progressive\nBits/(Pixel*Frame)               : 0.054\nStream size                      : 972 MiB (85%)\nWriting library                  : Lavc51.40.4\n\nAudio\nFormat                           : MPEG Audio\nFormat version                   : Version 1\nFormat profile                   : Layer 3\nCodec ID                         : 55\nCodec ID/Hint                    : MP3\nDuration                         : 1h 30mn\nBit rate mode                    : Constant\nBit rate                         : 256 Kbps\nChannel(s)                       : 2 channels\nSampling rate                    : 48.0 KHz\nResolution                       : 16 bits\nStream size                      : 166 MiB (14%)\nAlignment                        : Aligned on interleaves\nInterleave, duration             : 24 ms (0.60 video frame)\nInterleave, preload duration     : 24 ms\n\n","torrent":{"xt":"urn:btih:9177e19614142171f9bc1c15a4177fe0fb8f0c1a","amp;dn":"Written.In.Blood.DIVX.2002.La.Vela.avi","amp;tr":["udp%3A%2F%2Ftracker.openbittorrent.com%3A80","udp%3A%2F%2Fopen.demonii.com%3A1337","udp%3A%2F%2Ftracker.coppersurfer.tk%3A6969","udp%3A%2F%2Fexodus.desync.com%3A6969"],"infoHash":"9177e19614142171f9bc1c15a4177fe0fb8f0c1a","infoHashBuffer":{"type":"Buffer","data":[145,119,225,150,20,20,33,113,249,188,28,21,164,23,127,224,251,143,12,26]},"announce":[],"urlList":[]}}